<?xml version="1.0" encoding="utf-8"?>
<!-- Generator: Adobe Illustrator 28.0.0, SVG Export Plug-In . SVG Version: 6.00 Build 0)  -->
<svg version="1.1" id="Layer_1" xmlns="http://www.w3.org/2000/svg" xmlns:xlink="http://www.w3.org/1999/xlink" x="0px" y="0px"
	 viewBox="0 0 217 246.6" style="enable-background:new 0 0 217 246.6;" xml:space="preserve">
<style type="text/css">
	.st0{fill:#2A67AD;}
	.st1{fill:#E2C53C;}
	.st2{fill:#A4D383;}
	.st3{fill:none;stroke:#2F66AC;stroke-width:2;stroke-miterlimit:10;}
	.st4{fill:#3265AA;}
	.st5{fill:#FFFFFF;}
	.st6{font-family:'BrightwallPersonalUse';}
	.st7{font-size:12.91px;}
	.st8{fill:#231F20;}
	.st9{font-family:'GeorgiaBrush';}
	.st10{font-size:27.06px;}
	.st11{font-size:20.19px;}
	.st12{fill:none;stroke:#3265AA;stroke-width:3;stroke-miterlimit:10;}
	.st13{font-family:'Helvetica';}
	.st14{font-size:10px;}
	.st15{font-size:20.4px;}
	.st16{fill:none;stroke:#231F20;stroke-width:0.5;stroke-miterlimit:10;}
	.st17{fill:#614221;}
	.st18{fill:#FDFEFF;}
	.st19{opacity:0.1;fill:#69CDE9;enable-background:new    ;}
	.st20{fill:none;}
	.st21{font-family:'Helvetica-Light';}
	.st22{font-size:8px;}
	.st23{font-size:14px;}
	.st24{font-size:16px;}
</style>
<path class="st0" d="M22.8,118.9c-0.3,0-3.1-0.1-5-2.6c-2.4-2.9-1.3-6.1-2.9-7c-2.1-1.2-4,3.9-7.8,3.6c-3.2-0.2-6.7-4.2-6.9-8.1
	c0-0.2,0-0.5,0-0.8c0.4-4.8,5.1-5.7,5.4-8.8c0.3-3-3.9-3.8-4.4-8.1c-0.4-2.8,0.9-6.4,3.1-7.9c3.7-2.5,8.2,2.1,10.1-0.2
	c1.4-1.8-0.9-4.9,0.6-8.4c1.2-2.6,4.1-4.2,6.8-3.9s5.2,2.3,6.3,5.3v44.6C27.4,117.1,25.6,119,22.8,118.9z"/>
<path class="st0" d="M194.3,192.3c0.3,0,3.1-0.1,5.1-2.6c2.4-2.9,1.3-6.1,2.9-7c2.1-1.2,4,3.9,7.9,3.6c3.2-0.2,6.7-4.2,6.9-8.1
	c0-0.2,0-0.5,0-0.8c-0.4-4.8-5.1-5.7-5.4-8.8c-0.3-3,3.9-3.8,4.4-8.1c0.4-2.9-0.9-6.4-3.1-7.9c-3.7-2.5-8.2,2.1-10.1-0.2
	c-1.4-1.8,0.9-4.9-0.6-8.4c-1.2-2.6-4.1-4.2-6.8-3.9s-5.2,2.3-6.3,5.3v44.6C189.6,190.4,191.5,192.3,194.3,192.3z"/>
<path class="st1" d="M199.9,167c0,4.7-4.6,9-10.2,8.2v-16.4C195.2,158,199.9,162.3,199.9,167L199.9,167z"/>
<path class="st1" d="M18.1,94c-0.1,4.8,4.4,9.1,9.7,8.5V85.8C22.6,85.3,18.2,89.3,18.1,94L18.1,94z"/>
<path class="st2" d="M108.4,188.3v24.4H27.9v-24.4H108.4z"/>
<path class="st3" d="M39.9,1h137.9c6.6,0,12,5.4,12,12v210.8c0,6.6-5.4,12-12,12H39.9c-6.6,0-12-5.4-12-12V13
	C27.9,6.4,33.2,1,39.9,1z"/>
<line class="st3" x1="27.9" y1="40" x2="189.7" y2="40.7"/>
<line class="st3" x1="27.9" y1="188.3" x2="189.7" y2="189"/>
<line class="st3" x1="27.4" y1="140.4" x2="189.3" y2="141.1"/>
<line class="st3" x1="134.9" y1="39.5" x2="134.9" y2="140.9"/>
<line class="st3" x1="108.4" y1="188.3" x2="108.4" y2="235.8"/>
<line class="st3" x1="27.9" y1="90.2" x2="134.9" y2="90.2"/>
<path class="st4" d="M189.7,40.7c-53.9-0.2-107.9-0.5-161.9-0.7V11.7C27.9,5.8,32.5,1,38.2,1h141.1c5.7,0,10.4,4.8,10.4,10.7V40.7z"
	/>
<text transform="matrix(1 0 0 1 77.13 27.94)" class="st5 st6 st7">Type: Sto</text>
<text transform="matrix(1 0 0 1 134.6 27.94)" class="st5 st6 st7">u</text>
<text transform="matrix(1 0 0 1 142.7 27.94)" class="st5 st6 st7">t</text>
<text transform="matrix(1 0 0 1 128.93 226.76)" class="st8 st9 st10">0.0</text>
<text transform="matrix(1 0 0 1 159.31 224.34)" class="st8 st9 st11">%</text>
<line class="st12" x1="64.6" y1="106.8" x2="119" y2="106.8"/>
<circle class="st4" cx="91.8" cy="106.8" r="3.7"/>
<line class="st12" x1="52.2" y1="65.6" x2="106.7" y2="65.6"/>
<circle class="st4" cx="97.9" cy="65.6" r="3.7"/>
<text transform="matrix(1 0 0 1 33.44 67.63)" class="st8 st13 st14">Let</text>
<text transform="matrix(1 0 0 1 42.01 169.9)" class="st8 st9 st15">Aroma:</text>
<text transform="matrix(1 0 0 1 109.41 68.63)" class="st8 st13 st14">T</text>
<text transform="matrix(1 0 0 1 115.15 68.63)" class="st8 st13 st14">ung</text>
<text transform="matrix(1 0 0 1 36.62 109.76)" class="st8 st13 st14">Sød</text>
<line class="st12" x1="64.6" y1="125.7" x2="119" y2="125.7"/>
<circle class="st4" cx="109" cy="125.7" r="3.7"/>
<text transform="matrix(1 0 0 1 36.62 128.69)" class="st8 st13 st14">Bitter</text>
<path class="st16" d="M144.5,54.5h33.7c-2.1,4.1-2.6,7.5-2.7,9.9c-0.1,3.7,0.9,5.7,1.9,11.6c0.6,3.7,0.8,6.7,0.8,8.6
	c-0.1,1.2-0.6,3.6-2.2,5.9c-2.2,3.2-5.1,4.5-6.3,4.9c-0.9,0.7-2.3,1.9-3.5,4c-1.2,2.1-1.5,4-1.6,5.1v8.9c0.3,0.1,1.1,0.5,1.8,1.3
	c0.5,0.7,0.6,1.4,0.7,1.8c3.2,1.4,6.4,2.8,9.5,4.3h-30.9l10.2-4.7c0-0.2-0.1-1.2,0.7-2.1c0.6-0.7,1.3-0.8,1.5-0.9
	c0-2.8,0-5.7-0.1-8.6c-0.2-1.1-0.6-3-1.8-5s-2.7-3.3-3.6-3.9c-1.2-0.6-3.3-1.8-5.1-4.1c-1.8-2.1-2.6-4.3-2.9-5.5
	c-0.1-1.8-0.1-4.7,0.4-8.1c0.8-6.1,2.2-8.2,2.3-12.4C147.2,62.8,146.8,59.1,144.5,54.5L144.5,54.5z"/>
<path class="st17" d="M149.1,69.1c8.1,0.1,16.1,0.2,24.1,0.2c0.7,1.6,1.5,3.9,2.1,6.7c0.9,4,1.6,7.4,0.5,10.7
	c-1.8,5.4-8.3,9.6-15,9.4c-5.5-0.2-10.8-3.3-13.2-8c-2.1-4.1-1.5-8.3-1.1-11.1C147.1,73.5,148.2,70.8,149.1,69.1L149.1,69.1z"/>
<path class="st18" d="M157.2,97.1c1.2,1.6,2.9,4.5,3.9,8.6c0.9,3.8,0.6,7.1,0.3,9c-0.5,0.2-1.4,0.6-2.3,1.6c-0.9,1-1.2,2-1.3,2.4
	c-0.9,0-1.9,0-2.8,0c1.6-1.8,3.2-3.6,4.9-5.5c0.3-1.8,0.4-4.1,0.1-6.8C159.5,102.3,158.2,99.2,157.2,97.1z"/>
<path class="st18" d="M172.9,69.3l-24.1,0.1c0-0.3-0.5-7,2-10c0.4-0.5,1.4-1.6,2.6-1.6c1.2,0,1.7,1.2,2.4,0.8c1-0.7,0.2-3.8,1.3-6
	c1.5-3.1,6.3-2.8,7.7,0.5c0.7,1.7,0.2,3.7,1.1,4.5c0.8,0.7,1.4-0.4,3-0.2c0.6,0.1,2.1,0.5,3.1,2.4c0.8,1.3,0.9,2.8,1.1,4
	C173.4,66.1,173.2,68.1,172.9,69.3L172.9,69.3z"/>
<path class="st18" d="M151,58.3c0.4,1.1,1.1,3,1.5,5.3c1.1,6.8-1.4,10.4-1.5,16.8c0,2.5,0.3,6.2,2.1,10.9c-1.5-1.6-3.5-4.2-4.1-7.7
	c-0.8-4.6,1.4-7.4,2.3-13.4C151.8,67.5,152,63.5,151,58.3z"/>
<path class="st19" d="M144.3,54.5H178c-2.1,4.1-2.6,7.5-2.7,9.9c-0.1,3.7,0.9,5.7,1.9,11.6c0.6,3.7,0.8,6.7,0.8,8.6
	c-0.1,1.2-0.6,3.6-2.2,5.9c-2.2,3.2-5.1,4.5-6.3,4.9c-0.9,0.7-2.3,1.9-3.5,4c-1.2,2.1-1.5,4-1.6,5.1v8.9c0.3,0.1,1.1,0.5,1.8,1.3
	c0.5,0.7,0.6,1.4,0.7,1.8c3.2,1.4,6.4,2.8,9.5,4.3h-30.9l10.2-4.7c0-0.2-0.1-1.2,0.7-2.1c0.6-0.7,1.3-0.8,1.5-0.9
	c0-2.8,0-5.7-0.1-8.6c-0.2-1.1-0.6-3-1.8-5s-2.7-3.3-3.6-3.9c-1.2-0.6-3.3-1.8-5.1-4.1c-1.8-2.1-2.6-4.3-2.9-5.5
	c-0.1-1.8-0.1-4.7,0.4-8.1c0.8-6.1,2.2-8.2,2.3-12.4C147.1,62.8,146.7,59.1,144.3,54.5L144.3,54.5z"/>
<g>
	<rect x="104.9" y="151.9" class="st20" width="74.3" height="32.3"/>
	<text transform="matrix(1 0 0 1 104.9004 157.6683)"><tspan x="0" y="0" class="st21 st22">Ristetmalt med </tspan><tspan x="0" y="9.6" class="st21 st22">kraftig duft af mørk </tspan><tspan x="0" y="19.2" class="st21 st22">chokolade</tspan></text>
	<rect x="142" y="128.6" class="st20" width="40.9" height="10.3"/>
	<text transform="matrix(1 0 0 1 142.0261 134.4002)" class="st21 st22">Farve: Dyb</text>
	<rect x="119.2" y="196.5" class="st20" width="63.6" height="13.7"/>
	<text transform="matrix(1 0 0 1 119.1742 202.2372)" class="st21 st22">Alkohold procent</text>
	<rect x="56.6" y="218.8" class="st20" width="30.1" height="12.2"/>
	<text transform="matrix(1 0 0 1 56.5779 228.8449)" class="st21 st23">IBU</text>
	<rect x="58.7" y="195.7" class="st20" width="30.1" height="12.2"/>
	<text transform="matrix(1 0 0 1 58.7034 207.22)" class="st21 st24">30</text>
</g>
</svg>
