<?xml version="1.0" encoding="UTF-8"?>
<svg id="Layer_1" data-name="Layer 1" xmlns="http://www.w3.org/2000/svg" viewBox="0 0 217.04 246.59">
  <defs>
    <style>
      .cls-1 {
        font-size: 20.19px;
        letter-spacing: 0em;
      }

      .cls-1, .cls-2, .cls-3, .cls-4, .cls-5, .cls-6, .cls-7, .cls-8 {
        fill: #231f20;
      }

      .cls-1, .cls-6, .cls-8 {
        font-family: GeorgiaBrush, 'Georgia Brush';
      }

      .cls-2 {
        font-size: 9.14px;
      }

      .cls-2, .cls-3, .cls-4, .cls-7 {
        font-family: AcuminVariableConcept, 'Acumin Variable Concept';
        font-variation-settings: 'wght' 194, 'wdth' 100, 'slnt' 0;
      }

      .cls-9 {
        letter-spacing: 0em;
      }

      .cls-10 {
        letter-spacing: 0em;
      }

      .cls-11 {
        letter-spacing: .02em;
      }

      .cls-12 {
        letter-spacing: -.04em;
      }

      .cls-13 {
        stroke: #3265aa;
        stroke-width: 3px;
      }

      .cls-13, .cls-14, .cls-15 {
        fill: none;
        stroke-miterlimit: 10;
      }

      .cls-16 {
        letter-spacing: 0em;
      }

      .cls-17 {
        letter-spacing: 0em;
      }

      .cls-18 {
        letter-spacing: 0em;
      }

      .cls-19 {
        letter-spacing: 0em;
      }

      .cls-20 {
        letter-spacing: 0em;
      }

      .cls-21 {
        letter-spacing: 0em;
      }

      .cls-22 {
        letter-spacing: 0em;
      }

      .cls-23 {
        letter-spacing: 0em;
      }

      .cls-3 {
        font-size: 8.79px;
      }

      .cls-24 {
        letter-spacing: .01em;
      }

      .cls-4 {
        font-size: 14.32px;
      }

      .cls-25 {
        letter-spacing: 0em;
      }

      .cls-26 {
        fill: #fff;
        font-family: BrightwallPersonalUse, 'Brightwall Personal Use';
        font-size: 12.91px;
      }

      .cls-27 {
        letter-spacing: 0em;
      }

      .cls-28 {
        letter-spacing: 0em;
      }

      .cls-29 {
        letter-spacing: 0em;
      }

      .cls-30 {
        fill: #69cde9;
        opacity: .1;
      }

      .cls-30, .cls-31, .cls-32, .cls-33, .cls-34, .cls-35, .cls-36 {
        stroke-width: 0px;
      }

      .cls-37 {
        letter-spacing: 0em;
      }

      .cls-38 {
        letter-spacing: -.02em;
      }

      .cls-39 {
        letter-spacing: 0em;
      }

      .cls-5 {
        font-family: Helvetica, Helvetica;
        font-size: 10px;
      }

      .cls-40 {
        letter-spacing: 0em;
      }

      .cls-41 {
        letter-spacing: 0em;
      }

      .cls-14 {
        stroke: #2f66ac;
        stroke-width: 2px;
      }

      .cls-42 {
        letter-spacing: .04em;
      }

      .cls-43 {
        letter-spacing: 0em;
      }

      .cls-44 {
        letter-spacing: 0em;
      }

      .cls-45 {
        letter-spacing: 0em;
      }

      .cls-46 {
        letter-spacing: 0em;
      }

      .cls-47 {
        letter-spacing: -.04em;
      }

      .cls-48 {
        letter-spacing: 0em;
      }

      .cls-6 {
        font-size: 27.06px;
        letter-spacing: 0em;
      }

      .cls-49 {
        letter-spacing: 0em;
      }

      .cls-7 {
        font-size: 18.3px;
      }

      .cls-31 {
        fill: #614221;
      }

      .cls-32 {
        fill: #2a67ad;
      }

      .cls-33 {
        fill: #e2c53c;
      }

      .cls-34 {
        fill: #a4d383;
      }

      .cls-35 {
        fill: #3265aa;
      }

      .cls-36 {
        fill: #fdfeff;
      }

      .cls-50 {
        letter-spacing: -.02em;
      }

      .cls-51 {
        letter-spacing: 0em;
      }

      .cls-52 {
        letter-spacing: 0em;
      }

      .cls-8 {
        font-size: 20.4px;
        letter-spacing: 0em;
      }

      .cls-53 {
        letter-spacing: .03em;
      }

      .cls-15 {
        stroke: #231f20;
        stroke-width: .5px;
      }
    </style>
  </defs>
  <path class="cls-32" d="m22.75,118.95c-.33,0-3.06-.11-5.05-2.55-2.35-2.87-1.31-6.06-2.91-6.96-2.05-1.16-4.01,3.87-7.85,3.58-3.23-.24-6.74-4.17-6.93-8.09,0-.18-.01-.47.01-.83.36-4.8,5.08-5.68,5.38-8.81.29-2.99-3.87-3.75-4.41-8.13-.35-2.85.94-6.4,3.11-7.89,3.69-2.54,8.25,2.08,10.1-.23,1.42-1.78-.95-4.9.58-8.36,1.17-2.64,4.06-4.2,6.8-3.95,2.74.25,5.16,2.31,6.29,5.34v44.56c-.44.47-2.32,2.38-5.12,2.32Z"/>
  <path class="cls-32" d="m194.29,192.26c.33,0,3.06-.11,5.05-2.55,2.35-2.87,1.31-6.06,2.91-6.96,2.05-1.16,4.01,3.87,7.85,3.58,3.23-.24,6.74-4.17,6.93-8.09,0-.18.01-.47-.01-.83-.36-4.8-5.08-5.68-5.38-8.81-.29-2.99,3.87-3.75,4.41-8.13.35-2.85-.94-6.4-3.11-7.89-3.69-2.54-8.25,2.08-10.1-.23-1.42-1.78.95-4.9-.58-8.36-1.17-2.64-4.06-4.2-6.8-3.95-2.74.25-5.16,2.31-6.29,5.34v44.56c.44.47,2.32,2.38,5.12,2.32Z"/>
  <path class="cls-33" d="m199.89,167c0,4.67-4.65,8.99-10.17,8.22v-16.42c5.51-.77,10.16,3.53,10.17,8.19Z"/>
  <path class="cls-33" d="m18.13,94.04c-.08,4.8,4.42,9.06,9.74,8.48v-16.69c-5.22-.57-9.67,3.5-9.74,8.2Z"/>
  <path class="cls-34" d="m108.36,188.33v24.44H27.87v-24.44h80.49Z"/>
  <rect class="cls-14" x="27.87" y="1" width="161.85" height="234.82" rx="12" ry="12"/>
  <line class="cls-14" x1="27.87" y1="39.95" x2="189.72" y2="40.66"/>
  <line class="cls-14" x1="27.87" y1="188.33" x2="189.72" y2="189.03"/>
  <line class="cls-14" x1="27.43" y1="140.42" x2="189.29" y2="141.13"/>
  <line class="cls-14" x1="134.88" y1="39.46" x2="134.88" y2="140.89"/>
  <line class="cls-14" x1="108.36" y1="188.33" x2="108.36" y2="235.82"/>
  <line class="cls-14" x1="27.87" y1="90.18" x2="134.88" y2="90.18"/>
  <text class="cls-4" transform="translate(56.77 229.36)"><tspan class="cls-24" x="0" y="0">I</tspan><tspan class="cls-9" x="3.75" y="0">B</tspan><tspan class="cls-23" x="12.69" y="0">U</tspan></text>
  <text class="cls-7" transform="translate(59.11 207.84)"><tspan class="cls-43" x="0" y="0">3</tspan><tspan class="cls-22" x="9.9" y="0">0</tspan></text>
  <text class="cls-3" transform="translate(138.07 133.36)"><tspan class="cls-38" x="0" y="0">F</tspan><tspan class="cls-49" x="4.65" y="0">a</tspan><tspan class="cls-42" x="9.13" y="0">r</tspan><tspan class="cls-18" x="12.28" y="0">v</tspan><tspan class="cls-11" x="16.33" y="0">e</tspan><tspan class="cls-18" x="20.96" y="0">: </tspan><tspan class="cls-53" x="25.21" y="0">D</tspan><tspan class="cls-41" x="31.75" y="0">y</tspan><tspan class="cls-18" x="35.83" y="0">b</tspan></text>
  <path class="cls-35" d="m189.72,40.66c-53.95-.24-107.9-.49-161.85-.73V11.67c0-5.87,4.66-10.67,10.36-10.67h141.13c5.7,0,10.36,4.8,10.36,10.67v28.99Z"/>
  <text class="cls-26" transform="translate(77.13 27.94)"><tspan class="cls-52" x="0" y="0">Type: Sto</tspan><tspan class="cls-47" x="57.47" y="0">u</tspan><tspan class="cls-39" x="65.57" y="0">t</tspan></text>
  <text class="cls-6" transform="translate(128.93 226.76)"><tspan x="0" y="0">0.0</tspan></text>
  <text class="cls-1" transform="translate(159.31 224.34)"><tspan x="0" y="0">%</tspan></text>
  <line class="cls-13" x1="64.59" y1="106.79" x2="118.99" y2="106.79"/>
  <circle class="cls-35" cx="91.79" cy="106.79" r="3.7"/>
  <line class="cls-13" x1="52.24" y1="65.64" x2="106.65" y2="65.64"/>
  <circle class="cls-35" cx="97.95" cy="65.64" r="3.7"/>
  <text class="cls-5" transform="translate(33.44 67.63)"><tspan x="0" y="0">Let</tspan></text>
  <text class="cls-3" transform="translate(118.76 202.49)"><tspan class="cls-18" x="0" y="0">Al</tspan><tspan class="cls-51" x="7.55" y="0">k</tspan><tspan class="cls-49" x="11.62" y="0">ohol p</tspan><tspan class="cls-25" x="34.85" y="0">r</tspan><tspan class="cls-20" x="37.64" y="0">o</tspan><tspan class="cls-29" x="42.36" y="0">c</tspan><tspan class="cls-18" x="46.67" y="0">e</tspan><tspan class="cls-40" x="51.1" y="0">n</tspan><tspan class="cls-18" x="55.91" y="0">t</tspan></text>
  <text class="cls-8" transform="translate(42.01 169.9)"><tspan x="0" y="0">Aroma:</tspan></text>
  <text class="cls-2" transform="translate(103.73 158.31)"><tspan x="0" y="0">R</tspan><tspan class="cls-16" x="5.74" y="0">i</tspan><tspan class="cls-10" x="7.65" y="0">s</tspan><tspan class="cls-17" x="11.68" y="0">t</tspan><tspan class="cls-19" x="14.26" y="0">e</tspan><tspan x="18.92" y="0">t </tspan><tspan class="cls-17" x="23.94" y="0">m</tspan><tspan x="31.46" y="0">a</tspan><tspan class="cls-37" x="36.1" y="0">l</tspan><tspan x="38.12" y="0">t m</tspan><tspan class="cls-46" x="50.71" y="0">e</tspan><tspan x="55.34" y="0">d </tspan><tspan class="cls-44" x="0" y="10.97">k</tspan><tspan class="cls-50" x="4.25" y="10.97">r</tspan><tspan class="cls-16" x="7.05" y="10.97">a</tspan><tspan class="cls-21" x="11.65" y="10.97">f</tspan><tspan x="13.86" y="10.97">tig d</tspan><tspan class="cls-19" x="30.85" y="10.97">u</tspan><tspan class="cls-27" x="35.84" y="10.97">f</tspan><tspan x="38.05" y="10.97">t </tspan><tspan class="cls-48" x="43.07" y="10.97">a</tspan><tspan x="47.66" y="10.97">f mørk </tspan><tspan x="0" y="21.93">cho</tspan><tspan class="cls-28" x="14.26" y="21.93">k</tspan><tspan x="18.49" y="21.93">o</tspan><tspan class="cls-45" x="23.32" y="21.93">l</tspan><tspan x="25.21" y="21.93">ade</tspan></text>
  <text class="cls-5" transform="translate(109.41 68.63)"><tspan class="cls-12" x="0" y="0">T</tspan><tspan x="5.74" y="0">ung</tspan></text>
  <text class="cls-5" transform="translate(36.62 109.76)"><tspan x="0" y="0">Sød</tspan></text>
  <line class="cls-13" x1="64.59" y1="125.71" x2="118.99" y2="125.71"/>
  <circle class="cls-35" cx="108.98" cy="125.71" r="3.7"/>
  <text class="cls-5" transform="translate(36.62 128.69)"><tspan x="0" y="0">Bitter</tspan></text>
  <path class="cls-15" d="m144.48,54.45h33.65c-2.15,4.14-2.62,7.54-2.67,9.87-.07,3.71.95,5.71,1.85,11.57.56,3.65.75,6.65.82,8.6-.15,1.23-.61,3.56-2.24,5.93-2.18,3.17-5.14,4.47-6.3,4.9-.88.66-2.33,1.92-3.49,3.96-1.17,2.06-1.49,3.98-1.6,5.07v8.86c.32.11,1.15.46,1.79,1.33.52.72.64,1.44.68,1.78,3.17,1.42,6.35,2.85,9.52,4.27h-30.94l10.16-4.7c-.02-.18-.09-1.23.68-2.09.58-.65,1.3-.82,1.54-.86-.02-2.85-.04-5.7-.06-8.56-.17-1.12-.59-2.99-1.79-4.99-1.2-2-2.66-3.26-3.57-3.94-1.21-.6-3.26-1.81-5.11-4.06-1.75-2.14-2.55-4.27-2.91-5.54-.06-1.8-.05-4.66.39-8.13.78-6.09,2.17-8.25,2.28-12.43.06-2.5-.32-6.22-2.67-10.85Z"/>
  <path class="cls-31" d="m149.11,69.06c8.05.08,16.1.16,24.15.24.66,1.56,1.52,3.86,2.13,6.73.85,3.99,1.58,7.43.5,10.7-1.79,5.4-8.31,9.56-14.96,9.36-5.47-.17-10.79-3.29-13.23-8-2.13-4.1-1.53-8.33-1.14-11.09.5-3.52,1.68-6.24,2.56-7.93Z"/>
  <path class="cls-36" d="m157.19,97.09c1.17,1.62,2.94,4.52,3.85,8.55.86,3.82.58,7.05.26,8.98-.47.17-1.45.58-2.31,1.55-.85.96-1.16,1.96-1.27,2.44-.95,0-1.89.02-2.84.03,1.62-1.82,3.25-3.64,4.87-5.46.26-1.8.41-4.13.13-6.79-.43-4.04-1.67-7.22-2.69-9.3Z"/>
  <path class="cls-36" d="m172.93,69.3l-24.06.1c-.03-.31-.52-6.95,2.04-10.02.45-.53,1.36-1.63,2.57-1.61,1.25.02,1.74,1.21,2.38.79,1-.66.22-3.83,1.28-5.96,1.53-3.09,6.32-2.76,7.68.45.73,1.73.2,3.65,1.09,4.52.75.74,1.35-.44,2.97-.2.61.09,2.1.49,3.15,2.36.75,1.34.94,2.83,1.09,3.99.3,2.39.04,4.41-.18,5.59Z"/>
  <path class="cls-36" d="m150.96,58.35c.45,1.11,1.11,2.95,1.48,5.29,1.07,6.76-1.39,10.41-1.48,16.8-.03,2.48.28,6.24,2.15,10.9-1.53-1.61-3.52-4.2-4.12-7.69-.8-4.64,1.42-7.41,2.34-13.42.42-2.73.67-6.75-.37-11.88Z"/>
  <path class="cls-30" d="m144.33,54.45h33.65c-2.15,4.14-2.62,7.54-2.67,9.87-.07,3.71.95,5.71,1.85,11.57.56,3.65.75,6.65.82,8.6-.15,1.23-.61,3.56-2.24,5.93-2.18,3.17-5.14,4.47-6.3,4.9-.88.66-2.33,1.92-3.49,3.96-1.17,2.06-1.49,3.98-1.6,5.07v8.86c.32.11,1.15.46,1.79,1.33.52.72.64,1.44.68,1.78,3.17,1.42,6.35,2.85,9.52,4.27h-30.94l10.16-4.7c-.02-.18-.09-1.23.68-2.09.58-.65,1.3-.82,1.54-.86-.02-2.85-.04-5.7-.06-8.56-.17-1.12-.59-2.99-1.79-4.99-1.2-2-2.66-3.26-3.57-3.94-1.21-.6-3.26-1.81-5.11-4.06-1.75-2.14-2.55-4.27-2.91-5.54-.06-1.8-.05-4.66.39-8.13.78-6.09,2.17-8.25,2.28-12.43.06-2.5-.32-6.22-2.67-10.85Z"/>
</svg>