<?xml version="1.0" encoding="UTF-8"?>
<svg id="Layer_1" data-name="Layer 1" xmlns="http://www.w3.org/2000/svg" viewBox="0 0 217.04 246.59">
  <defs>
    <style>
      .cls-1 {
        font-size: 20.19px;
        letter-spacing: 0em;
      }

      .cls-1, .cls-2, .cls-3, .cls-4, .cls-5, .cls-6, .cls-7, .cls-8 {
        fill: #231f20;
      }

      .cls-1, .cls-6, .cls-8 {
        font-family: GeorgiaBrush, 'Georgia Brush';
      }

      .cls-2 {
        font-size: 9.14px;
      }

      .cls-2, .cls-3, .cls-4, .cls-7 {
        font-family: AcuminVariableConcept, 'Acumin Variable Concept';
        font-variation-settings: 'wght' 194, 'wdth' 100, 'slnt' 0;
      }

      .cls-9 {
        letter-spacing: 0em;
      }

      .cls-10 {
        letter-spacing: 0em;
      }

      .cls-11 {
        letter-spacing: .02em;
      }

      .cls-12 {
        letter-spacing: -.18em;
      }

      .cls-13 {
        letter-spacing: -.04em;
      }

      .cls-14 {
        stroke: #3265aa;
        stroke-width: 3px;
      }

      .cls-14, .cls-15, .cls-16, .cls-17 {
        stroke-miterlimit: 10;
      }

      .cls-14, .cls-16, .cls-17 {
        fill: none;
      }

      .cls-18 {
        letter-spacing: 0em;
      }

      .cls-19 {
        letter-spacing: 0em;
      }

      .cls-20 {
        letter-spacing: 0em;
      }

      .cls-21 {
        letter-spacing: 0em;
      }

      .cls-22 {
        letter-spacing: 0em;
      }

      .cls-23 {
        letter-spacing: 0em;
      }

      .cls-24 {
        letter-spacing: .02em;
      }

      .cls-25 {
        letter-spacing: -.01em;
      }

      .cls-3 {
        font-size: 8.79px;
      }

      .cls-26 {
        letter-spacing: .01em;
      }

      .cls-4 {
        font-size: 14.32px;
      }

      .cls-27 {
        letter-spacing: 0em;
      }

      .cls-15 {
        fill: #6ecde5;
        opacity: .2;
        stroke-width: .25px;
      }

      .cls-15, .cls-17 {
        stroke: #231f20;
      }

      .cls-28 {
        font-family: BrightwallPersonalUse, 'Brightwall Personal Use';
        font-size: 12.91px;
      }

      .cls-28, .cls-29 {
        fill: #fff;
      }

      .cls-30 {
        letter-spacing: 0em;
      }

      .cls-31 {
        letter-spacing: 0em;
      }

      .cls-32 {
        letter-spacing: -.02em;
      }

      .cls-33 {
        letter-spacing: 0em;
      }

      .cls-5 {
        font-family: Helvetica, Helvetica;
        font-size: 10px;
      }

      .cls-34 {
        letter-spacing: 0em;
      }

      .cls-35 {
        letter-spacing: 0em;
      }

      .cls-36 {
        letter-spacing: 0em;
      }

      .cls-16 {
        stroke: #2f66ac;
        stroke-width: 2px;
      }

      .cls-37 {
        letter-spacing: .04em;
      }

      .cls-38 {
        letter-spacing: 0em;
      }

      .cls-39 {
        letter-spacing: -.11em;
      }

      .cls-40 {
        letter-spacing: 0em;
      }

      .cls-41 {
        letter-spacing: 0em;
      }

      .cls-42 {
        letter-spacing: .01em;
      }

      .cls-43 {
        letter-spacing: 0em;
      }

      .cls-6 {
        font-size: 27.06px;
        letter-spacing: 0em;
      }

      .cls-44 {
        fill: #e0e1e2;
        opacity: .3;
      }

      .cls-44, .cls-45, .cls-46, .cls-47, .cls-48, .cls-49, .cls-29 {
        stroke-width: 0px;
      }

      .cls-50 {
        letter-spacing: 0em;
      }

      .cls-7 {
        font-size: 18.3px;
      }

      .cls-51 {
        letter-spacing: 0em;
      }

      .cls-45 {
        fill: #f9d560;
      }

      .cls-46 {
        fill: #e2c53c;
      }

      .cls-47 {
        fill: #da82a4;
      }

      .cls-48 {
        fill: #a4d383;
      }

      .cls-49 {
        fill: #3265aa;
      }

      .cls-52 {
        letter-spacing: 0em;
      }

      .cls-53 {
        letter-spacing: 0em;
      }

      .cls-8 {
        font-size: 20.4px;
        letter-spacing: 0em;
      }

      .cls-54 {
        letter-spacing: 0em;
      }

      .cls-17 {
        stroke-width: .5px;
      }
    </style>
  </defs>
  <path class="cls-47" d="m22.75,118.95c-.33,0-3.06-.11-5.05-2.55-2.35-2.87-1.31-6.06-2.91-6.96-2.05-1.16-4.01,3.87-7.85,3.58-3.23-.24-6.74-4.17-6.93-8.09,0-.18-.01-.47.01-.83.36-4.8,5.08-5.68,5.38-8.81.29-2.99-3.87-3.75-4.41-8.13-.35-2.85.94-6.4,3.11-7.89,3.69-2.54,8.25,2.08,10.1-.23,1.42-1.78-.95-4.9.58-8.36,1.17-2.64,4.06-4.2,6.8-3.95,2.74.25,5.16,2.31,6.29,5.34v44.56c-.44.47-2.32,2.38-5.12,2.32Z"/>
  <path class="cls-47" d="m194.29,192.26c.33,0,3.06-.11,5.05-2.55,2.35-2.87,1.31-6.06,2.91-6.96,2.05-1.16,4.01,3.87,7.85,3.58,3.23-.24,6.74-4.17,6.93-8.09,0-.18.01-.47-.01-.83-.36-4.8-5.08-5.68-5.38-8.81-.29-2.99,3.87-3.75,4.41-8.13.35-2.85-.94-6.4-3.11-7.89-3.69-2.54-8.25,2.08-10.1-.23-1.42-1.78.95-4.9-.58-8.36-1.17-2.64-4.06-4.2-6.8-3.95-2.74.25-5.16,2.31-6.29,5.34v44.56c.44.47,2.32,2.38,5.12,2.32Z"/>
  <path class="cls-46" d="m199.89,167c0,4.67-4.65,8.99-10.17,8.22v-16.42c5.51-.77,10.16,3.53,10.17,8.19Z"/>
  <path class="cls-46" d="m18.13,94.04c-.08,4.8,4.42,9.06,9.74,8.48v-16.69c-5.22-.57-9.67,3.5-9.74,8.2Z"/>
  <path class="cls-48" d="m108.36,188.33v24.44H27.87v-24.44h80.49Z"/>
  <rect class="cls-16" x="27.87" y="1" width="161.85" height="234.82" rx="12" ry="12"/>
  <line class="cls-16" x1="27.87" y1="39.95" x2="189.72" y2="40.66"/>
  <line class="cls-16" x1="27.87" y1="188.33" x2="189.72" y2="189.03"/>
  <line class="cls-16" x1="27.43" y1="140.42" x2="189.29" y2="141.13"/>
  <line class="cls-16" x1="134.88" y1="39.46" x2="134.88" y2="140.89"/>
  <line class="cls-16" x1="108.36" y1="188.33" x2="108.36" y2="235.82"/>
  <line class="cls-16" x1="27.87" y1="90.18" x2="134.88" y2="90.18"/>
  <text class="cls-4" transform="translate(56.77 229.36)"><tspan class="cls-26" x="0" y="0">I</tspan><tspan class="cls-9" x="3.75" y="0">B</tspan><tspan class="cls-23" x="12.69" y="0">U</tspan></text>
  <text class="cls-7" transform="translate(59.11 207.84)"><tspan class="cls-54" x="0" y="0">5</tspan><tspan class="cls-22" x="9.76" y="0">0</tspan></text>
  <text class="cls-3" transform="translate(136.05 133.36)"><tspan class="cls-32" x="0" y="0">F</tspan><tspan class="cls-50" x="4.65" y="0">a</tspan><tspan class="cls-37" x="9.13" y="0">r</tspan><tspan class="cls-20" x="12.28" y="0">v</tspan><tspan class="cls-11" x="16.33" y="0">e</tspan><tspan class="cls-20" x="20.96" y="0">: </tspan><tspan class="cls-24" x="25.21" y="0">G</tspan><tspan class="cls-35" x="31.66" y="0">y</tspan><tspan class="cls-36" x="35.74" y="0">lden</tspan></text>
  <path class="cls-49" d="m189.72,40.66c-53.95-.24-107.9-.49-161.85-.73V11.67c0-5.87,4.66-10.67,10.36-10.67h141.13c5.7,0,10.36,4.8,10.36,10.67v28.99Z"/>
  <text class="cls-28" transform="translate(42.02 27.94)"><tspan class="cls-53" x="0" y="0">Type: Indian </tspan><tspan class="cls-12" x="79.2" y="0">P</tspan><tspan class="cls-33" x="89.6" y="0">ale A</tspan><tspan class="cls-39" x="121.42" y="0">l</tspan><tspan class="cls-53" x="124.29" y="0">e</tspan></text>
  <text class="cls-6" transform="translate(128.93 226.76)"><tspan x="0" y="0">0.0</tspan></text>
  <text class="cls-1" transform="translate(159.31 224.34)"><tspan x="0" y="0">%</tspan></text>
  <line class="cls-14" x1="53.37" y1="116.83" x2="107.78" y2="116.83"/>
  <circle class="cls-49" cx="80.57" cy="116.83" r="3.7"/>
  <line class="cls-14" x1="52.24" y1="65.64" x2="106.65" y2="65.64"/>
  <circle class="cls-49" cx="62.99" cy="65.64" r="3.7"/>
  <text class="cls-5" transform="translate(33.44 67.63)"><tspan x="0" y="0">Let</tspan></text>
  <text class="cls-3" transform="translate(118.76 202.49)"><tspan class="cls-20" x="0" y="0">Al</tspan><tspan class="cls-52" x="7.55" y="0">k</tspan><tspan class="cls-50" x="11.62" y="0">ohol p</tspan><tspan class="cls-27" x="34.85" y="0">r</tspan><tspan class="cls-21" x="37.64" y="0">o</tspan><tspan class="cls-31" x="42.36" y="0">c</tspan><tspan class="cls-20" x="46.67" y="0">e</tspan><tspan class="cls-34" x="51.1" y="0">n</tspan><tspan class="cls-20" x="55.91" y="0">t</tspan></text>
  <text class="cls-8" transform="translate(42.01 169.9)"><tspan x="0" y="0">Aroma:</tspan></text>
  <text class="cls-2" transform="translate(103.73 158.31)"><tspan class="cls-25" x="0" y="0">F</tspan><tspan class="cls-40" x="4.9" y="0">r</tspan><tspan class="cls-18" x="7.79" y="0">i</tspan><tspan class="cls-40" x="9.7" y="0">s</tspan><tspan x="13.68" y="0">k </tspan><tspan class="cls-30" x="20.34" y="0">h</tspan><tspan x="25.28" y="0">umle m</tspan><tspan class="cls-41" x="54.27" y="0">e</tspan><tspan x="58.9" y="0">d </tspan><tspan class="cls-19" x="0" y="10.97">m</tspan><tspan x="7.52" y="10.97">ar</tspan><tspan class="cls-42" x="15.12" y="10.97">k</tspan><tspan x="19.54" y="10.97">a</tspan><tspan class="cls-10" x="24.19" y="10.97">n</tspan><tspan class="cls-19" x="29.17" y="10.97">t</tspan><tspan x="31.75" y="10.97">e no</tspan><tspan class="cls-19" x="48.56" y="10.97">t</tspan><tspan x="51.14" y="10.97">er </tspan><tspan class="cls-18" x="61.07" y="10.97">a</tspan><tspan x="65.66" y="10.97">f </tspan><tspan class="cls-38" x="0" y="21.93">h</tspan><tspan class="cls-43" x="4.97" y="21.93">y</tspan><tspan x="9.2" y="21.93">ld</tspan><tspan class="cls-51" x="16.18" y="21.93">e</tspan><tspan x="20.81" y="21.93">blo</tspan><tspan class="cls-10" x="32.62" y="21.93">ms</tspan><tspan x="44.2" y="21.93">t</tspan></text>
  <text class="cls-5" transform="translate(109.41 68.63)"><tspan class="cls-13" x="0" y="0">T</tspan><tspan x="5.74" y="0">ung</tspan></text>
  <text class="cls-5" transform="translate(32.73 119.8)"><tspan x="0" y="0">Sød</tspan></text>
  <text class="cls-5" transform="translate(111.48 119.8)"><tspan x="0" y="0">Sur</tspan></text>
  <path class="cls-44" d="m174.76,55.5h-26.44c-1.6-2.39-1.61-5.14-.25-6.6,1.02-1.09,2.7-1.36,3.98-1.16,2.7.42,3.72,2.97,4.84,2.55.98-.37.23-2.34,1.51-3.78,1.62-1.82,5.59-1.83,7.06-.13,1.03,1.2.41,2.79,1.26,3.15,1.06.45,2.07-1.97,4.28-2.02,1.65-.04,3.16,1.27,3.91,2.39.58.88.73,1.7.76,1.89.3,1.86-.63,3.31-.9,3.7Z"/>
  <path class="cls-45" d="m148.93,55.5h25.23c1.53,7.37,2.17,13.47,2.46,17.85.23,3.39.18,5.17.04,6.5-.04.4-.1.8-.17,1.21-1.09,6.09-5.31,10.46-8.85,13.2,2.91,10.6,4.84,18.49,5.26,21.05.11.69.27,1.95-.46,2.96-.61.84-1.59,1.16-2.28,1.29-5.62.08-11.23.15-16.85.23-.61-.04-1.44-.21-1.97-.83-.9-1.04-.47-2.76-.3-3.41.73-2.97,2.55-10.71,5.09-21.12-2.31-1.43-6.19-4.36-8.39-9.36-1.14-2.59-1.57-4.89-1.63-6.17-.14-2.64-.04-5.06.53-9.94.66-5.71,1.59-10.34,2.29-13.45Z"/>
  <path class="cls-29" d="m174.15,55.5h-25.23c-1.53-2.28-1.54-4.91-.24-6.3.97-1.04,2.58-1.3,3.8-1.11,2.57.4,3.55,2.84,4.62,2.43.93-.36.22-2.23,1.44-3.61,1.55-1.73,5.34-1.74,6.73-.12.99,1.15.39,2.66,1.2,3.01,1.01.43,1.97-1.88,4.09-1.92,1.58-.03,3.02,1.21,3.73,2.28.55.84.69,1.62.72,1.8.29,1.78-.61,3.16-.86,3.53Z"/>
  <path class="cls-17" d="m147.61,47.58h27.34c1.32,6.59,2.14,12.16,2.66,16.26,1.73,13.59.94,17.16.15,19.51-1.82,5.36-5.26,8.98-7.68,11.08,1.33,7.24,2.66,14.48,3.99,21.72.02.1.49,2.22-1.03,3.69-1.19,1.15-2.71,1.05-2.96,1.03h-16.11c-1.38.43-2.88.02-3.84-1.03-.9-.99-1.18-2.41-.74-3.69,1.33-7.09,2.66-14.19,3.99-21.28-2.63-2.2-6.29-5.95-8.13-11.53-1.11-3.36-1.26-6.49-.15-16.99.52-4.92,1.31-11.3,2.51-18.77Z"/>
  <path class="cls-29" d="m150.63,53.57c-.75,8.33-1.66,14.79-2.35,19.14-.81,5.13-1.59,9.11.72,12.52,1.6,2.37,4.05,3.5,5.73,4.07-1.04-1.16-2.44-2.99-3.43-5.51-1.74-4.44-1.16-8.38-.86-10.94.51-4.4.87-10.73.19-19.28Z"/>
  <path class="cls-29" d="m155.71,96.97c-.53,4.22-1.27,7.58-1.84,9.85-1.51,6.01-3.26,10.1-1.77,11.27.59.47,1.5.3,2.08.13-.09-.2-.22-.5-.34-.88-1.08-3.38.58-6.66,1.08-7.78,1.04-2.34,1.89-6.17.79-12.6Z"/>
  <path class="cls-15" d="m147.61,47.58h27.34c1.32,6.59,2.14,12.16,2.66,16.26,1.73,13.59.94,17.16.15,19.51-1.82,5.36-5.26,8.98-7.68,11.08,1.33,7.24,2.66,14.48,3.99,21.72.02.1.49,2.22-1.03,3.69-1.19,1.15-2.71,1.05-2.96,1.03h-16.11c-1.38.43-2.88.02-3.84-1.03-.9-.99-1.18-2.41-.74-3.69,1.33-7.09,2.66-14.19,3.99-21.28-2.63-2.2-6.29-5.95-8.13-11.53-1.11-3.36-1.26-6.49-.15-16.99.52-4.92,1.31-11.3,2.51-18.77Z"/>
</svg>