<?xml version="1.0" encoding="utf-8"?>
<!-- Generator: Adobe Illustrator 28.0.0, SVG Export Plug-In . SVG Version: 6.00 Build 0)  -->
<svg version="1.1" id="Layer_1" xmlns="http://www.w3.org/2000/svg" xmlns:xlink="http://www.w3.org/1999/xlink" x="0px" y="0px"
	 viewBox="0 0 217 246.6" style="enable-background:new 0 0 217 246.6;" xml:space="preserve">
<style type="text/css">
	.st0{fill:#DA82A4;}
	.st1{fill:#E2C53C;}
	.st2{fill:#A4D383;}
	.st3{fill:none;stroke:#2F66AC;stroke-width:2;stroke-miterlimit:10;}
	.st4{fill:#3265AA;}
	.st5{fill:#FFFFFF;}
	.st6{font-family:'BrightwallPersonalUse';}
	.st7{font-size:12.91px;}
	.st8{letter-spacing:-2;}
	.st9{letter-spacing:-1;}
	.st10{fill:#231F20;}
	.st11{font-family:'GeorgiaBrush';}
	.st12{font-size:27.06px;}
	.st13{font-size:20.19px;}
	.st14{fill:none;stroke:#3265AA;stroke-width:3;stroke-miterlimit:10;}
	.st15{font-family:'Helvetica';}
	.st16{font-size:10px;}
	.st17{font-size:20.4px;}
	.st18{opacity:0.3;fill:#E0E1E2;enable-background:new    ;}
	.st19{fill:#F9D560;}
	.st20{fill:none;stroke:#231F20;stroke-width:0.5;stroke-miterlimit:10;}
	.st21{opacity:0.2;fill:#6ECDE5;stroke:#231F20;stroke-width:0.25;stroke-miterlimit:10;enable-background:new    ;}
	.st22{fill:none;}
	.st23{font-family:'Helvetica-Light';}
	.st24{font-size:8px;}
	.st25{font-size:14px;}
	.st26{font-size:16px;}
</style>
<path class="st0" d="M22.8,118.9c-0.3,0-3.1-0.1-5-2.6c-2.4-2.9-1.3-6.1-2.9-7c-2.1-1.2-4,3.9-7.8,3.6c-3.2-0.2-6.7-4.2-6.9-8.1
	c0-0.2,0-0.5,0-0.8c0.4-4.8,5.1-5.7,5.4-8.8c0.3-3-3.9-3.8-4.4-8.1c-0.4-2.8,0.9-6.4,3.1-7.9c3.7-2.5,8.2,2.1,10.1-0.2
	c1.4-1.8-0.9-4.9,0.6-8.4c1.2-2.6,4.1-4.2,6.8-3.9s5.2,2.3,6.3,5.3v44.6C27.4,117.1,25.6,119,22.8,118.9z"/>
<path class="st0" d="M194.3,192.3c0.3,0,3.1-0.1,5.1-2.6c2.4-2.9,1.3-6.1,2.9-7c2.1-1.2,4,3.9,7.9,3.6c3.2-0.2,6.7-4.2,6.9-8.1
	c0-0.2,0-0.5,0-0.8c-0.4-4.8-5.1-5.7-5.4-8.8c-0.3-3,3.9-3.8,4.4-8.1c0.4-2.9-0.9-6.4-3.1-7.9c-3.7-2.5-8.2,2.1-10.1-0.2
	c-1.4-1.8,0.9-4.9-0.6-8.4c-1.2-2.6-4.1-4.2-6.8-3.9s-5.2,2.3-6.3,5.3v44.6C189.6,190.4,191.5,192.3,194.3,192.3z"/>
<path class="st1" d="M199.9,167c0,4.7-4.6,9-10.2,8.2v-16.4C195.2,158,199.9,162.3,199.9,167L199.9,167z"/>
<path class="st1" d="M18.1,94c-0.1,4.8,4.4,9.1,9.7,8.5V85.8C22.6,85.3,18.2,89.3,18.1,94L18.1,94z"/>
<path class="st2" d="M108.4,188.3v24.4H27.9v-24.4H108.4z"/>
<path class="st3" d="M39.9,1h137.9c6.6,0,12,5.4,12,12v210.8c0,6.6-5.4,12-12,12H39.9c-6.6,0-12-5.4-12-12V13
	C27.9,6.4,33.2,1,39.9,1z"/>
<line class="st3" x1="27.9" y1="40" x2="189.7" y2="40.7"/>
<line class="st3" x1="27.9" y1="188.3" x2="189.7" y2="189"/>
<line class="st3" x1="27.4" y1="140.4" x2="189.3" y2="141.1"/>
<line class="st3" x1="134.9" y1="39.5" x2="134.9" y2="140.9"/>
<line class="st3" x1="108.4" y1="188.3" x2="108.4" y2="235.8"/>
<line class="st3" x1="27.9" y1="90.2" x2="134.9" y2="90.2"/>
<path class="st4" d="M189.7,40.7c-53.9-0.2-107.9-0.5-161.9-0.7V11.7C27.9,5.8,32.5,1,38.2,1h141.1c5.7,0,10.4,4.8,10.4,10.7V40.7z"
	/>
<text transform="matrix(1 0 0 1 42.02 27.94)" class="st5 st6 st7">Type: Indian </text>
<text transform="matrix(1 0 0 1 121.22 27.94)" class="st5 st6 st7 st8">P</text>
<text transform="matrix(1 0 0 1 131.62 27.94)" class="st5 st6 st7">ale A</text>
<text transform="matrix(1 0 0 1 163.44 27.94)" class="st5 st6 st7 st9">l</text>
<text transform="matrix(1 0 0 1 166.31 27.94)" class="st5 st6 st7">e</text>
<text transform="matrix(1 0 0 1 128.93 226.76)" class="st10 st11 st12">0.0</text>
<text transform="matrix(1 0 0 1 159.31 224.34)" class="st10 st11 st13">%</text>
<line class="st14" x1="53.4" y1="116.8" x2="107.8" y2="116.8"/>
<circle class="st4" cx="80.6" cy="116.8" r="3.7"/>
<line class="st14" x1="52.2" y1="65.6" x2="106.7" y2="65.6"/>
<circle class="st4" cx="63" cy="65.6" r="3.7"/>
<text transform="matrix(1 0 0 1 33.44 67.63)" class="st10 st15 st16">Let</text>
<text transform="matrix(1 0 0 1 42.01 169.9)" class="st10 st11 st17">Aroma:</text>
<text transform="matrix(1 0 0 1 109.41 68.63)" class="st10 st15 st16">T</text>
<text transform="matrix(1 0 0 1 115.15 68.63)" class="st10 st15 st16">ung</text>
<text transform="matrix(1 0 0 1 32.73 119.8)" class="st10 st15 st16">Sød</text>
<text transform="matrix(1 0 0 1 111.48 119.8)" class="st10 st15 st16">Sur</text>
<path class="st18" d="M174.8,55.5h-26.4c-1.6-2.4-1.6-5.1-0.2-6.6c1-1.1,2.7-1.4,4-1.2c2.7,0.4,3.7,3,4.8,2.5c1-0.4,0.2-2.3,1.5-3.8
	c1.6-1.8,5.6-1.8,7.1-0.1c1,1.2,0.4,2.8,1.3,3.2c1.1,0.5,2.1-2,4.3-2c1.6,0,3.2,1.3,3.9,2.4c0.6,0.9,0.7,1.7,0.8,1.9
	C176,53.7,175,55.1,174.8,55.5L174.8,55.5z"/>
<path class="st19" d="M148.9,55.5h25.2c1.5,7.4,2.2,13.5,2.5,17.8c0.2,3.4,0.2,5.2,0,6.5c0,0.4-0.1,0.8-0.2,1.2
	c-1.1,6.1-5.3,10.5-8.9,13.2c2.9,10.6,4.8,18.5,5.3,21.1c0.1,0.7,0.3,1.9-0.5,3c-0.6,0.8-1.6,1.2-2.3,1.3
	c-5.6,0.1-11.2,0.2-16.9,0.2c-0.6,0-1.4-0.2-2-0.8c-0.9-1-0.5-2.8-0.3-3.4c0.7-3,2.6-10.7,5.1-21.1c-2.3-1.4-6.2-4.4-8.4-9.4
	c-1.1-2.6-1.6-4.9-1.6-6.2c-0.1-2.6,0-5.1,0.5-9.9C147.3,63.2,148.2,58.6,148.9,55.5L148.9,55.5z"/>
<path class="st5" d="M174.1,55.5h-25.2c-1.5-2.3-1.5-4.9-0.2-6.3c1-1,2.6-1.3,3.8-1.1c2.6,0.4,3.6,2.8,4.6,2.4
	c0.9-0.4,0.2-2.2,1.4-3.6c1.6-1.7,5.3-1.7,6.7-0.1c1,1.2,0.4,2.7,1.2,3c1,0.4,2-1.9,4.1-1.9c1.6,0,3,1.2,3.7,2.3
	c0.6,0.8,0.7,1.6,0.7,1.8C175.3,53.7,174.4,55.1,174.1,55.5L174.1,55.5z"/>
<path class="st20" d="M147.6,47.6h27.3c1.3,6.6,2.1,12.2,2.7,16.3c1.7,13.6,0.9,17.2,0.1,19.5c-1.8,5.4-5.3,9-7.7,11.1
	c1.3,7.2,2.7,14.5,4,21.7c0,0.1,0.5,2.2-1,3.7c-1.2,1.2-2.7,1.1-3,1H154c-1.4,0.4-2.9,0-3.8-1c-0.9-1-1.2-2.4-0.7-3.7
	c1.3-7.1,2.7-14.2,4-21.3c-2.6-2.2-6.3-5.9-8.1-11.5c-1.1-3.4-1.3-6.5-0.1-17C145.6,61.4,146.4,55.1,147.6,47.6L147.6,47.6z"/>
<path class="st5" d="M150.6,53.6c-0.8,8.3-1.7,14.8-2.4,19.1c-0.8,5.1-1.6,9.1,0.7,12.5c1.6,2.4,4.1,3.5,5.7,4.1
	c-1-1.2-2.4-3-3.4-5.5c-1.7-4.4-1.2-8.4-0.9-10.9C150.9,68.4,151.3,62.1,150.6,53.6z"/>
<path class="st5" d="M155.7,97c-0.5,4.2-1.3,7.6-1.8,9.8c-1.5,6-3.3,10.1-1.8,11.3c0.6,0.5,1.5,0.3,2.1,0.1
	c-0.1-0.2-0.2-0.5-0.3-0.9c-1.1-3.4,0.6-6.7,1.1-7.8C156,107.2,156.8,103.4,155.7,97L155.7,97z"/>
<path class="st21" d="M147.6,47.6h27.3c1.3,6.6,2.1,12.2,2.7,16.3c1.7,13.6,0.9,17.2,0.1,19.5c-1.8,5.4-5.3,9-7.7,11.1
	c1.3,7.2,2.7,14.5,4,21.7c0,0.1,0.5,2.2-1,3.7c-1.2,1.2-2.7,1.1-3,1H154c-1.4,0.4-2.9,0-3.8-1c-0.9-1-1.2-2.4-0.7-3.7
	c1.3-7.1,2.7-14.2,4-21.3c-2.6-2.2-6.3-5.9-8.1-11.5c-1.1-3.4-1.3-6.5-0.1-17C145.6,61.4,146.4,55.1,147.6,47.6L147.6,47.6z"/>
<rect x="104.2" y="152.6" class="st22" width="74.3" height="32.3"/>
<text transform="matrix(1 0 0 1 104.2188 158.3751)"><tspan x="0" y="0" class="st23 st24">Frisk humle med </tspan><tspan x="0" y="9.6" class="st23 st24">markante noter af </tspan><tspan x="0" y="19.2" class="st23 st24">hyldeblomst</tspan></text>
<rect x="136.8" y="129.3" class="st22" width="53.5" height="10.3"/>
<text transform="matrix(1 0 0 1 136.8387 135.106)" class="st23 st24">Farve: Gylden</text>
<rect x="118.5" y="197.2" class="st22" width="63.6" height="13.7"/>
<text transform="matrix(1 0 0 1 118.4927 202.944)" class="st23 st24">Alkohold procent</text>
<rect x="55.9" y="219.5" class="st22" width="30.1" height="12.2"/>
<text transform="matrix(1 0 0 1 55.8963 229.5517)" class="st23 st25">IBU</text>
<rect x="58" y="196.4" class="st22" width="30.1" height="12.2"/>
<text transform="matrix(1 0 0 1 58.0218 207.9268)" class="st23 st26">50</text>
</svg>
