<?xml version="1.0" encoding="utf-8"?>
<!-- Generator: Adobe Illustrator 28.0.0, SVG Export Plug-In . SVG Version: 6.00 Build 0)  -->
<svg version="1.1" id="Layer_1" xmlns="http://www.w3.org/2000/svg" xmlns:xlink="http://www.w3.org/1999/xlink" x="0px" y="0px"
	 viewBox="0 0 217 246.6" style="enable-background:new 0 0 217 246.6;" xml:space="preserve">
<style type="text/css">
	.st0{fill:#F27980;}
	.st1{fill:#E2C422;}
	.st2{fill:#A6D27D;}
	.st3{fill:none;stroke:#3068AF;stroke-width:2;stroke-miterlimit:10;}
	.st4{fill:#3367AD;}
	.st5{fill:#FFFFFF;}
	.st6{font-family:'BrightwallPersonalUse';}
	.st7{font-size:12.91px;}
	.st8{fill:#231F20;}
	.st9{font-family:'GeorgiaBrush';}
	.st10{font-size:27.06px;}
	.st11{font-size:20.19px;}
	.st12{fill:none;stroke:#231F20;stroke-width:0.25;stroke-miterlimit:10;}
	.st13{fill:#FAA327;}
	.st14{fill:none;stroke:#3367AD;stroke-width:3;stroke-miterlimit:10;}
	.st15{font-family:'Helvetica';}
	.st16{font-size:10px;}
	.st17{opacity:0.1;}
	.st18{fill:#11BED3;}
	.st19{fill:#11BED3;stroke:#231F20;stroke-width:0.5;stroke-miterlimit:10;}
	.st20{opacity:0.6;fill:#11BED3;enable-background:new    ;}
	.st21{opacity:0.4;fill:#11BED3;stroke:#231F20;stroke-width:0.5;stroke-miterlimit:10;enable-background:new    ;}
	.st22{font-size:20.4px;}
	.st23{fill:none;}
	.st24{font-family:'Helvetica-Light';}
	.st25{font-size:8px;}
	.st26{font-size:14px;}
	.st27{font-size:16px;}
</style>
<path class="st0" d="M22.8,118.9c-0.3,0-3.1-0.1-5-2.6c-2.4-2.9-1.3-6.1-2.9-7c-2.1-1.2-4,3.9-7.8,3.6c-3.2-0.2-6.7-4.2-6.9-8.1
	c0-0.2,0-0.5,0-0.8c0.4-4.8,5.1-5.7,5.4-8.8c0.3-3-3.9-3.8-4.4-8.1c-0.4-2.8,0.9-6.4,3.1-7.9c3.7-2.5,8.2,2.1,10.1-0.2
	c1.4-1.8-0.9-4.9,0.6-8.4c1.2-2.6,4.1-4.2,6.8-3.9s5.2,2.3,6.3,5.3v44.6C27.4,117.1,25.6,119,22.8,118.9z"/>
<path class="st0" d="M194.3,192.3c0.3,0,3.1-0.1,5.1-2.6c2.4-2.9,1.3-6.1,2.9-7c2.1-1.2,4,3.9,7.9,3.6c3.2-0.2,6.7-4.2,6.9-8.1
	c0-0.2,0-0.5,0-0.8c-0.4-4.8-5.1-5.7-5.4-8.8c-0.3-3,3.9-3.8,4.4-8.1c0.4-2.9-0.9-6.4-3.1-7.9c-3.7-2.5-8.2,2.1-10.1-0.2
	c-1.4-1.8,0.9-4.9-0.6-8.4c-1.2-2.6-4.1-4.2-6.8-3.9s-5.2,2.3-6.3,5.3v44.6C189.6,190.4,191.5,192.3,194.3,192.3z"/>
<path class="st1" d="M199.9,167c0,4.7-4.6,9-10.2,8.2v-16.4C195.2,158,199.9,162.3,199.9,167L199.9,167z"/>
<path class="st1" d="M18.1,94c-0.1,4.8,4.4,9.1,9.7,8.5V85.8C22.6,85.3,18.2,89.3,18.1,94L18.1,94z"/>
<path class="st2" d="M108.4,188.3v24.4H27.9v-24.4H108.4z"/>
<path class="st3" d="M39.9,1h137.9c6.6,0,12,5.4,12,12v210.8c0,6.6-5.4,12-12,12H39.9c-6.6,0-12-5.4-12-12V13
	C27.9,6.4,33.2,1,39.9,1z"/>
<line class="st3" x1="27.9" y1="40" x2="189.7" y2="40.7"/>
<line class="st3" x1="27.9" y1="188.3" x2="189.7" y2="189"/>
<line class="st3" x1="27.4" y1="140.4" x2="189.3" y2="141.1"/>
<line class="st3" x1="134.9" y1="39.5" x2="134.9" y2="140.9"/>
<line class="st3" x1="108.4" y1="188.3" x2="108.4" y2="235.8"/>
<line class="st3" x1="27.9" y1="90.2" x2="134.9" y2="90.2"/>
<path class="st4" d="M189.7,40.7c-53.9-0.2-107.9-0.5-161.9-0.7V11.7C27.9,5.8,32.5,1,38.2,1h141.1c5.7,0,10.4,4.8,10.4,10.7V40.7z"
	/>
<text transform="matrix(1 0 0 1 67.9 26.96)" class="st5 st6 st7">Type: </text>
<text transform="matrix(1 0 0 1 106.76 26.96)" class="st5 st6 st7">F</text>
<text transform="matrix(1 0 0 1 114.6 26.96)" class="st5 st6 st7">r</text>
<text transform="matrix(1 0 0 1 120.34 26.96)" class="st5 st6 st7">u</text>
<text transform="matrix(1 0 0 1 128.53 26.96)" class="st5 st6 st7">gtøl</text>
<text transform="matrix(1 0 0 1 128.93 226.76)" class="st8 st9 st10">0.0</text>
<text transform="matrix(1 0 0 1 159.31 224.34)" class="st8 st9 st11">%</text>
<g>
	<path class="st5" d="M176.9,59h-30.3c-1.8-2.7-1.9-5.9-0.3-7.6c1.2-1.2,3.1-1.6,4.6-1.3c3.1,0.5,4.3,3.4,5.6,2.9
		c1.1-0.4,0.3-2.7,1.7-4.3c1.9-2.1,6.4-2.1,8.1-0.1c1.2,1.4,0.5,3.2,1.4,3.6c1.2,0.5,2.4-2.3,4.9-2.3c1.9,0,3.6,1.5,4.5,2.8
		c0.7,1,0.8,2,0.9,2.2C178.2,56.9,177.1,58.6,176.9,59L176.9,59z"/>
	<path class="st12" d="M144.2,50.1h35.7v16.5c0.6,0.9,2.6,4.2,2,8.7c-0.5,3.5-2.2,5.8-3,6.7c-1,12-2.1,24-3.1,36.1
		c-0.2,1.9-1.8,3.4-3.8,3.4h-19.2c-1.9,0-3.4-1.4-3.6-3.3l-3.7-36.2c-0.8-1-2.9-3.9-3.2-8.3c-0.3-4.3,1.4-7.5,2-8.7L144.2,50.1
		L144.2,50.1z"/>
	<path class="st13" d="M146.5,59h30.3v9.2c0.3,0.3,3.2,3,2.7,7.2c-0.4,4-3.6,6.1-3.9,6.4c-1,10-2.1,20-3.1,29.9
		c-0.1,1.1-1,1.9-2.1,1.9h-16.7c-1,0-1.8-0.7-1.9-1.7l-3.2-30.4c-0.3-0.2-4.4-2.4-4.9-7.2c-0.5-4.8,3-7.9,3.3-8.1
		C146.8,63.8,146.7,61.4,146.5,59L146.5,59z"/>
	<path class="st5" d="M151.6,53.6l0.4,11.1c-0.5,0.6-3.2,3.5-3.1,8c0.1,3.8,2.2,6.3,2.9,7c0.8,12.5,1.6,25,2.4,37.5l-4.4-36.8
		c-0.6-0.6-3-3-3.3-6.9c-0.4-4.8,2.8-8,3.3-8.4C150.4,61.3,151,57.5,151.6,53.6z"/>
	<path class="st12" d="M143.2,72.6c0,1,0.1,2.7,0.9,4.6c0.9,2.1,2.2,3.4,2.9,4.1"/>
	<path class="st12" d="M154.2,114.7H172c0.1,0,1.2-0.1,1.9-1c0.5-0.7,0.5-1.4,0.5-1.6"/>
</g>
<line class="st14" x1="53.4" y1="116.8" x2="107.8" y2="116.8"/>
<circle class="st4" cx="80.6" cy="116.8" r="3.7"/>
<line class="st14" x1="52.2" y1="65.6" x2="106.7" y2="65.6"/>
<circle class="st4" cx="63" cy="65.6" r="3.7"/>
<text transform="matrix(1 0 0 1 33.44 67.63)" class="st8 st15 st16">Let</text>
<g class="st17">
	<path class="st18" d="M176.9,59.3h-30.1c-1.8-2.7-1.8-5.8-0.3-7.5c1.1-1.2,3.1-1.5,4.5-1.3c3,0.5,4.3,3.4,5.5,2.9
		c0.4-0.2,0.9-0.8,1-2.9h9.4c0,0.8,0.2,1.8,0.8,2c1.1,0.5,2.4-2.2,4.9-2.3c1.9,0,3.6,1.4,4.4,2.7c0.7,1,0.8,1.9,0.9,2.2
		C178.3,57.2,177.2,58.9,176.9,59.3L176.9,59.3z"/>
	<path class="st19" d="M144.6,50.5h35.4v16.4c0.6,0.9,2.6,4.2,2,8.6c-0.4,3.4-2.2,5.7-3,6.6c-1,11.9-2.1,23.8-3.1,35.8
		c-0.2,1.9-1.8,3.4-3.7,3.4H153c-1.9,0-3.4-1.4-3.6-3.2L145.8,82c-0.8-1-2.9-3.9-3.2-8.2c-0.3-4.3,1.3-7.5,2-8.6L144.6,50.5
		L144.6,50.5z"/>
	<path class="st18" d="M146.8,59.3h30.1v9.1c0.3,0.3,3.2,3,2.7,7.2c-0.4,4-3.5,6.1-3.9,6.3c-1,9.9-2.1,19.8-3.1,29.7
		c-0.1,1.1-1,1.9-2.1,1.9H154c-1,0-1.8-0.7-1.9-1.7l-3.2-30.1c-0.5-0.3-3.9-2.8-4.4-7.4c-0.4-4.5,2.3-7.4,2.8-7.9
		C147.1,64.1,147,61.7,146.8,59.3L146.8,59.3z"/>
	<path class="st20" d="M151.9,54l0.4,11c-0.5,0.6-3.2,3.5-3.1,7.9c0.1,3.8,2.2,6.3,2.8,7c0.8,12.4,1.6,24.8,2.4,37.2l-4.4-36.5
		c-0.6-0.6-3-3-3.3-6.9c-0.4-4.8,2.8-7.9,3.3-8.4C150.7,61.6,151.3,57.7,151.9,54L151.9,54z"/>
	<path class="st21" d="M143.8,72c-0.2,0.8-0.5,2.8,0.4,5.2c0.9,2.4,2.5,3.7,3.2,4.2c0.6,6.1,1.1,12.2,1.7,18.3"/>
	<path class="st21" d="M154.5,114.6h17.6c0.1,0,1.2-0.1,1.9-1c0.5-0.7,0.5-1.4,0.5-1.6"/>
	<path class="st18" d="M163.6,59.3h13.5v9.1c0.3,0.3,3.2,3,2.7,7.2c-0.4,4-3.5,6.1-3.9,6.3c-1,9.9-2.1,19.8-3.1,29.7
		c-0.1,1.1-1,1.9-2.1,1.9h-6.2c2.1-16.9,1.3-26.3,0-31.7c-0.2-1.1-1.1-4.3-1.4-8.8C162.6,67.2,163.1,62.4,163.6,59.3L163.6,59.3z"/>
</g>
<text transform="matrix(1 0 0 1 42.01 169.9)" class="st8 st9 st22">Aroma:</text>
<text transform="matrix(1 0 0 1 109.41 68.63)" class="st8 st15 st16">T</text>
<text transform="matrix(1 0 0 1 115.15 68.63)" class="st8 st15 st16">ung</text>
<text transform="matrix(1 0 0 1 32.73 119.8)" class="st8 st15 st16">Sød</text>
<text transform="matrix(1 0 0 1 111.48 119.8)" class="st8 st15 st16">Sur</text>
<rect x="105.3" y="156.1" class="st23" width="74.3" height="32.3"/>
<text transform="matrix(1 0 0 1 105.3434 161.828)"><tspan x="0" y="0" class="st24 st25">Frisk rabarber med </tspan><tspan x="0" y="9.6" class="st24 st25">undertoner af citrus</tspan></text>
<rect x="142.5" y="128.5" class="st23" width="40.9" height="10.3"/>
<text transform="matrix(1 0 0 1 142.4691 134.294)" class="st24 st25">Farve: Rav</text>
<rect x="119.6" y="196.4" class="st23" width="63.6" height="13.7"/>
<text transform="matrix(1 0 0 1 119.6172 202.131)" class="st24 st25">Alkohold procent</text>
<rect x="57" y="218.7" class="st23" width="30.1" height="12.2"/>
<text transform="matrix(1 0 0 1 57.0209 228.7387)" class="st24 st26">IBU</text>
<rect x="59.1" y="195.6" class="st23" width="30.1" height="12.2"/>
<text transform="matrix(1 0 0 1 59.1463 207.1138)" class="st24 st27">15</text>
</svg>
