<?xml version="1.0" encoding="UTF-8"?>
<svg id="Layer_1" data-name="Layer 1" xmlns="http://www.w3.org/2000/svg" viewBox="0 0 217.04 246.59">
  <defs>
    <style>
      .cls-1 {
        font-size: 20.19px;
        letter-spacing: 0em;
      }

      .cls-1, .cls-2, .cls-3, .cls-4, .cls-5, .cls-6, .cls-7, .cls-8 {
        fill: #231f20;
      }

      .cls-1, .cls-6, .cls-8 {
        font-family: GeorgiaBrush, 'Georgia Brush';
      }

      .cls-9 {
        letter-spacing: 0em;
      }

      .cls-2 {
        font-size: 9.14px;
      }

      .cls-2, .cls-3, .cls-4, .cls-7 {
        font-family: AcuminVariableConcept, 'Acumin Variable Concept';
        font-variation-settings: 'wght' 194, 'wdth' 100, 'slnt' 0;
      }

      .cls-10 {
        letter-spacing: 0em;
      }

      .cls-11 {
        letter-spacing: .02em;
      }

      .cls-12 {
        letter-spacing: -.04em;
      }

      .cls-13 {
        stroke: #3367ad;
        stroke-width: 3px;
      }

      .cls-13, .cls-14, .cls-15, .cls-16, .cls-17 {
        stroke-miterlimit: 10;
      }

      .cls-13, .cls-16, .cls-17 {
        fill: none;
      }

      .cls-18 {
        letter-spacing: 0em;
      }

      .cls-19 {
        letter-spacing: 0em;
      }

      .cls-20 {
        opacity: .1;
      }

      .cls-21 {
        letter-spacing: 0em;
      }

      .cls-22 {
        letter-spacing: 0em;
      }

      .cls-23 {
        letter-spacing: .03em;
      }

      .cls-24 {
        letter-spacing: 0em;
      }

      .cls-25 {
        letter-spacing: -.07em;
      }

      .cls-26 {
        letter-spacing: 0em;
      }

      .cls-27 {
        letter-spacing: -.01em;
      }

      .cls-28 {
        letter-spacing: -.01em;
      }

      .cls-3 {
        font-size: 8.79px;
      }

      .cls-29 {
        letter-spacing: .01em;
      }

      .cls-4 {
        font-size: 14.32px;
      }

      .cls-30 {
        letter-spacing: 0em;
      }

      .cls-31 {
        font-family: BrightwallPersonalUse, 'Brightwall Personal Use';
        font-size: 12.91px;
      }

      .cls-31, .cls-32 {
        fill: #fff;
      }

      .cls-33 {
        letter-spacing: 0em;
      }

      .cls-14, .cls-15 {
        stroke-width: .5px;
      }

      .cls-14, .cls-15, .cls-34, .cls-35 {
        fill: #11bed3;
      }

      .cls-14, .cls-15, .cls-17 {
        stroke: #231f20;
      }

      .cls-36 {
        letter-spacing: 0em;
      }

      .cls-37 {
        letter-spacing: -.02em;
      }

      .cls-38 {
        letter-spacing: 0em;
      }

      .cls-5 {
        font-family: Helvetica, Helvetica;
        font-size: 10px;
      }

      .cls-39 {
        letter-spacing: 0em;
      }

      .cls-15 {
        opacity: .4;
      }

      .cls-16 {
        stroke: #3068af;
        stroke-width: 2px;
      }

      .cls-40 {
        letter-spacing: .04em;
      }

      .cls-41 {
        letter-spacing: .02em;
      }

      .cls-42 {
        letter-spacing: 0em;
      }

      .cls-43 {
        letter-spacing: -.01em;
      }

      .cls-6 {
        font-size: 27.06px;
        letter-spacing: 0em;
      }

      .cls-34 {
        opacity: .6;
      }

      .cls-34, .cls-44, .cls-35, .cls-45, .cls-46, .cls-47, .cls-32, .cls-48 {
        stroke-width: 0px;
      }

      .cls-49 {
        letter-spacing: -.04em;
      }

      .cls-50 {
        letter-spacing: 0em;
      }

      .cls-51 {
        letter-spacing: .01em;
      }

      .cls-44 {
        fill: #faa327;
      }

      .cls-45 {
        fill: #e2c422;
      }

      .cls-46 {
        fill: #a6d27d;
      }

      .cls-47 {
        fill: #3367ad;
      }

      .cls-48 {
        fill: #f27980;
      }

      .cls-52 {
        letter-spacing: -.02em;
      }

      .cls-53 {
        letter-spacing: 0em;
      }

      .cls-54 {
        letter-spacing: 0em;
      }

      .cls-7 {
        font-size: 18.3px;
        letter-spacing: 0em;
      }

      .cls-55 {
        letter-spacing: 0em;
      }

      .cls-8 {
        font-size: 20.4px;
        letter-spacing: 0em;
      }

      .cls-17 {
        stroke-width: .25px;
      }
    </style>
  </defs>
  <path class="cls-48" d="m22.75,118.95c-.33,0-3.06-.11-5.05-2.55-2.35-2.87-1.31-6.06-2.91-6.96-2.05-1.16-4.01,3.87-7.85,3.58-3.23-.24-6.74-4.17-6.93-8.09,0-.18-.01-.47.01-.83.36-4.8,5.08-5.68,5.38-8.81.29-2.99-3.87-3.75-4.41-8.13-.35-2.85.94-6.4,3.11-7.89,3.69-2.54,8.25,2.08,10.1-.23,1.42-1.78-.95-4.9.58-8.36,1.17-2.64,4.06-4.2,6.8-3.95,2.74.25,5.16,2.31,6.29,5.34v44.56c-.44.47-2.32,2.38-5.12,2.32Z"/>
  <path class="cls-48" d="m194.29,192.26c.33,0,3.06-.11,5.05-2.55,2.35-2.87,1.31-6.06,2.91-6.96,2.05-1.16,4.01,3.87,7.85,3.58,3.23-.24,6.74-4.17,6.93-8.09,0-.18.01-.47-.01-.83-.36-4.8-5.08-5.68-5.38-8.81-.29-2.99,3.87-3.75,4.41-8.13.35-2.85-.94-6.4-3.11-7.89-3.69-2.54-8.25,2.08-10.1-.23-1.42-1.78.95-4.9-.58-8.36-1.17-2.64-4.06-4.2-6.8-3.95-2.74.25-5.16,2.31-6.29,5.34v44.56c.44.47,2.32,2.38,5.12,2.32Z"/>
  <path class="cls-45" d="m199.89,167c0,4.67-4.65,8.99-10.17,8.22v-16.42c5.51-.77,10.16,3.53,10.17,8.19Z"/>
  <path class="cls-45" d="m18.13,94.04c-.08,4.8,4.42,9.06,9.74,8.48v-16.69c-5.22-.57-9.67,3.5-9.74,8.2Z"/>
  <path class="cls-46" d="m108.36,188.33v24.44H27.87v-24.44h80.49Z"/>
  <rect class="cls-16" x="27.87" y="1" width="161.85" height="234.82" rx="12" ry="12"/>
  <line class="cls-16" x1="27.87" y1="39.95" x2="189.72" y2="40.66"/>
  <line class="cls-16" x1="27.87" y1="188.33" x2="189.72" y2="189.03"/>
  <line class="cls-16" x1="27.43" y1="140.42" x2="189.29" y2="141.13"/>
  <line class="cls-16" x1="134.88" y1="39.46" x2="134.88" y2="140.89"/>
  <line class="cls-16" x1="108.36" y1="188.33" x2="108.36" y2="235.82"/>
  <line class="cls-16" x1="27.87" y1="90.18" x2="134.88" y2="90.18"/>
  <text class="cls-4" transform="translate(56.77 229.36)"><tspan class="cls-29" x="0" y="0">I</tspan><tspan class="cls-10" x="3.75" y="0">B</tspan><tspan class="cls-26" x="12.69" y="0">U</tspan></text>
  <text class="cls-7" transform="translate(59.11 207.84)"><tspan x="0" y="0">15</tspan></text>
  <text class="cls-3" transform="translate(142.19 133.36)"><tspan class="cls-37" x="0" y="0">F</tspan><tspan class="cls-50" x="4.65" y="0">a</tspan><tspan class="cls-40" x="9.13" y="0">r</tspan><tspan class="cls-21" x="12.28" y="0">v</tspan><tspan class="cls-11" x="16.33" y="0">e</tspan><tspan class="cls-21" x="20.96" y="0">: R</tspan><tspan class="cls-27" x="30.74" y="0">a</tspan><tspan class="cls-21" x="35.1" y="0">v</tspan></text>
  <path class="cls-47" d="m189.72,40.66c-53.95-.24-107.9-.49-161.85-.73V11.67c0-5.87,4.66-10.67,10.36-10.67h141.13c5.7,0,10.36,4.8,10.36,10.67v28.99Z"/>
  <text class="cls-31" transform="translate(67.9 26.96)"><tspan class="cls-54" x="0" y="0">Type: </tspan><tspan class="cls-25" x="38.86" y="0">F</tspan><tspan class="cls-41" x="46.7" y="0">r</tspan><tspan class="cls-49" x="52.44" y="0">u</tspan><tspan class="cls-38" x="60.63" y="0">gtøl</tspan></text>
  <text class="cls-6" transform="translate(128.93 226.76)"><tspan x="0" y="0">0.0</tspan></text>
  <text class="cls-1" transform="translate(159.31 224.34)"><tspan x="0" y="0">%</tspan></text>
  <g>
    <path class="cls-32" d="m176.85,59h-30.32c-1.84-2.74-1.85-5.89-.29-7.57,1.16-1.25,3.1-1.56,4.56-1.33,3.09.48,4.27,3.41,5.55,2.92,1.12-.43.26-2.68,1.73-4.33,1.86-2.08,6.42-2.1,8.09-.14,1.18,1.38.47,3.2,1.44,3.61,1.21.51,2.37-2.26,4.91-2.31,1.9-.04,3.63,1.45,4.48,2.75.67,1.01.83,1.95.87,2.17.35,2.14-.73,3.8-1.04,4.24Z"/>
    <path class="cls-17" d="m144.24,50.1h35.67v16.53c.58.88,2.61,4.2,2.02,8.67-.46,3.46-2.25,5.76-3.02,6.65-1.04,12.02-2.08,24.04-3.13,36.05-.17,1.95-1.8,3.45-3.76,3.45h-19.24c-1.87,0-3.44-1.42-3.63-3.28l-3.7-36.22c-.82-1.03-2.91-3.94-3.22-8.26-.31-4.34,1.35-7.53,2.02-8.67v-14.91Z"/>
    <path class="cls-44" d="m146.53,59h30.32v9.22c.32.29,3.19,3.03,2.74,7.24-.43,4.04-3.55,6.11-3.95,6.37-1.03,9.98-2.06,19.96-3.1,29.94-.11,1.07-1.02,1.89-2.1,1.89h-16.71c-.97,0-1.78-.73-1.88-1.69l-3.22-30.36c-.32-.17-4.42-2.4-4.94-7.24-.52-4.84,3.01-7.89,3.29-8.12-.16-2.41-.31-4.83-.47-7.24Z"/>
    <path class="cls-32" d="m151.61,53.62l.44,11.08c-.52.55-3.23,3.51-3.07,8.01.13,3.83,2.24,6.34,2.85,7.02.8,12.51,1.61,25.02,2.41,37.54l-4.39-36.77c-.61-.58-3.01-3.01-3.29-6.91-.35-4.83,2.83-8,3.29-8.45.59-3.84,1.17-7.68,1.76-11.52Z"/>
    <path class="cls-17" d="m143.16,72.57c0,.99.1,2.68.92,4.58.89,2.08,2.18,3.4,2.94,4.07"/>
    <path class="cls-17" d="m154.24,114.74h17.8c.15,0,1.25-.05,1.95-.98.51-.68.5-1.41.49-1.63"/>
  </g>
  <line class="cls-13" x1="53.37" y1="116.83" x2="107.78" y2="116.83"/>
  <circle class="cls-47" cx="80.57" cy="116.83" r="3.7"/>
  <line class="cls-13" x1="52.24" y1="65.64" x2="106.65" y2="65.64"/>
  <circle class="cls-47" cx="62.99" cy="65.64" r="3.7"/>
  <text class="cls-5" transform="translate(33.44 67.63)"><tspan x="0" y="0">Let</tspan></text>
  <g class="cls-20">
    <path class="cls-35" d="m176.89,59.28h-30.06c-1.82-2.72-1.83-5.84-.29-7.5,1.15-1.24,3.07-1.55,4.52-1.32,3.01.47,4.28,3.38,5.51,2.89.44-.17.91-.79.96-2.89h9.44c.03.81.18,1.77.77,2.04,1.14.51,2.41-2.24,4.87-2.29,1.88-.04,3.6,1.44,4.44,2.72.66,1,.82,1.93.86,2.15.34,2.12-.72,3.77-1.03,4.21Z"/>
    <path class="cls-14" d="m144.56,50.46h35.37v16.39c.58.88,2.58,4.17,2,8.59-.45,3.43-2.23,5.71-3,6.59-1.03,11.92-2.07,23.83-3.1,35.75-.17,1.93-1.79,3.42-3.73,3.42h-19.08c-1.86,0-3.41-1.41-3.6-3.25l-3.66-35.92c-.81-1.02-2.89-3.91-3.2-8.19-.31-4.31,1.34-7.47,2-8.59v-14.79Z"/>
    <path class="cls-35" d="m146.83,59.28h30.06v9.14c.31.29,3.16,3.01,2.72,7.18-.42,4.01-3.52,6.06-3.92,6.31-1.02,9.89-2.05,19.79-3.07,29.69-.11,1.06-1.01,1.87-2.08,1.87h-16.56c-.96,0-1.76-.72-1.86-1.67l-3.2-30.1c-.47-.32-3.94-2.75-4.38-7.36-.42-4.46,2.33-7.44,2.75-7.87-.15-2.39-.31-4.79-.46-7.18Z"/>
    <path class="cls-34" d="m151.86,53.95l.44,10.99c-.52.55-3.2,3.48-3.05,7.94.13,3.8,2.22,6.29,2.83,6.96.8,12.41,1.6,24.81,2.39,37.22l-4.35-36.46c-.61-.58-2.99-2.99-3.26-6.86-.35-4.79,2.81-7.94,3.26-8.38.58-3.81,1.16-7.62,1.74-11.43Z"/>
    <path class="cls-15" d="m143.77,72.01c-.17.8-.51,2.84.37,5.21.89,2.38,2.51,3.71,3.17,4.19.56,6.12,1.12,12.24,1.69,18.35"/>
    <path class="cls-15" d="m154.48,114.55h17.65c.15,0,1.24-.05,1.94-.97.51-.67.5-1.4.48-1.61"/>
    <path class="cls-35" d="m163.58,59.28h13.51v9.14c.31.29,3.16,3.01,2.72,7.18-.42,4.01-3.52,6.06-3.92,6.31-1.02,9.89-2.05,19.79-3.07,29.69-.11,1.06-1.01,1.87-2.08,1.87h-6.21c2.09-16.94,1.28-26.27,0-31.74-.25-1.07-1.05-4.29-1.43-8.75-.49-5.77,0-10.56.48-13.7Z"/>
  </g>
  <text class="cls-3" transform="translate(118.76 202.49)"><tspan class="cls-21" x="0" y="0">Al</tspan><tspan class="cls-53" x="7.55" y="0">k</tspan><tspan class="cls-50" x="11.62" y="0">ohol p</tspan><tspan class="cls-30" x="34.85" y="0">r</tspan><tspan class="cls-22" x="37.64" y="0">o</tspan><tspan class="cls-33" x="42.36" y="0">c</tspan><tspan class="cls-21" x="46.67" y="0">e</tspan><tspan class="cls-39" x="51.1" y="0">n</tspan><tspan class="cls-21" x="55.91" y="0">t</tspan></text>
  <text class="cls-8" transform="translate(42.01 169.9)"><tspan x="0" y="0">Aroma:</tspan></text>
  <text class="cls-2" transform="translate(103.73 162.34)"><tspan class="cls-28" x="0" y="0">F</tspan><tspan class="cls-42" x="4.9" y="0">r</tspan><tspan class="cls-18" x="7.79" y="0">i</tspan><tspan class="cls-42" x="9.7" y="0">s</tspan><tspan x="13.68" y="0">k </tspan><tspan class="cls-52" x="20.34" y="0">r</tspan><tspan x="23.15" y="0">abar</tspan><tspan class="cls-9" x="40.42" y="0">b</tspan><tspan x="45.5" y="0">er m</tspan><tspan class="cls-55" x="63" y="0">e</tspan><tspan x="67.63" y="0">d </tspan><tspan x="0" y="10.97">unde</tspan><tspan class="cls-23" x="19.54" y="10.97">r</tspan><tspan class="cls-19" x="22.78" y="10.97">t</tspan><tspan x="25.37" y="10.97">oner </tspan><tspan class="cls-18" x="45.13" y="10.97">a</tspan><tspan x="49.73" y="10.97">f </tspan><tspan class="cls-51" x="54.4" y="10.97">c</tspan><tspan class="cls-36" x="58.94" y="10.97">i</tspan><tspan class="cls-24" x="60.96" y="10.97">t</tspan><tspan class="cls-43" x="63.52" y="10.97">r</tspan><tspan class="cls-19" x="66.38" y="10.97">u</tspan><tspan x="71.24" y="10.97">s</tspan></text>
  <text class="cls-5" transform="translate(109.41 68.63)"><tspan class="cls-12" x="0" y="0">T</tspan><tspan x="5.74" y="0">ung</tspan></text>
  <text class="cls-5" transform="translate(32.73 119.8)"><tspan x="0" y="0">Sød</tspan></text>
  <text class="cls-5" transform="translate(111.48 119.8)"><tspan x="0" y="0">Sur</tspan></text>
</svg>