<?xml version="1.0" encoding="utf-8"?>
<!-- Generator: Adobe Illustrator 28.0.0, SVG Export Plug-In . SVG Version: 6.00 Build 0)  -->
<svg version="1.1" id="Layer_1" xmlns="http://www.w3.org/2000/svg" xmlns:xlink="http://www.w3.org/1999/xlink" x="0px" y="0px"
	 viewBox="0 0 217 246.6" style="enable-background:new 0 0 217 246.6;" xml:space="preserve">
<style type="text/css">
	.st0{fill:#2A67AD;}
	.st1{fill:#E2C53C;}
	.st2{fill:#A4D383;}
	.st3{fill:none;stroke:#2F66AC;stroke-width:2;stroke-miterlimit:10;}
	.st4{fill:#3265AA;}
	.st5{fill:#FFFFFF;}
	.st6{font-family:'BrightwallPersonalUse';}
	.st7{font-size:12.91px;}
	.st8{letter-spacing:-1;}
	.st9{fill:#231F20;}
	.st10{font-family:'GeorgiaBrush';}
	.st11{font-size:27.06px;}
	.st12{font-size:20.19px;}
	.st13{fill:none;stroke:#3265AA;stroke-width:3;stroke-miterlimit:10;}
	.st14{font-family:'Helvetica';}
	.st15{font-size:10px;}
	.st16{font-size:20.4px;}
	.st17{fill:#FFFDE6;}
	.st18{fill:none;stroke:#231F20;stroke-width:0.25;stroke-miterlimit:10;}
	.st19{fill:#FCB03E;}
	.st20{opacity:0.1;fill:#59C2ED;enable-background:new    ;}
	.st21{fill:none;}
	.st22{font-family:'Helvetica-Light';}
	.st23{font-size:8px;}
	.st24{font-size:14px;}
	.st25{font-size:16px;}
</style>
<path class="st0" d="M22.8,118.9c-0.3,0-3.1-0.1-5-2.6c-2.4-2.9-1.3-6.1-2.9-7c-2.1-1.2-4,3.9-7.8,3.6c-3.2-0.2-6.7-4.2-6.9-8.1
	c0-0.2,0-0.5,0-0.8c0.4-4.8,5.1-5.7,5.4-8.8c0.3-3-3.9-3.8-4.4-8.1c-0.4-2.8,0.9-6.4,3.1-7.9c3.7-2.5,8.2,2.1,10.1-0.2
	c1.4-1.8-0.9-4.9,0.6-8.4c1.2-2.6,4.1-4.2,6.8-3.9s5.2,2.3,6.3,5.3v44.6C27.4,117.1,25.6,119,22.8,118.9z"/>
<path class="st0" d="M194.3,192.3c0.3,0,3.1-0.1,5.1-2.6c2.4-2.9,1.3-6.1,2.9-7c2.1-1.2,4,3.9,7.9,3.6c3.2-0.2,6.7-4.2,6.9-8.1
	c0-0.2,0-0.5,0-0.8c-0.4-4.8-5.1-5.7-5.4-8.8c-0.3-3,3.9-3.8,4.4-8.1c0.4-2.9-0.9-6.4-3.1-7.9c-3.7-2.5-8.2,2.1-10.1-0.2
	c-1.4-1.8,0.9-4.9-0.6-8.4c-1.2-2.6-4.1-4.2-6.8-3.9s-5.2,2.3-6.3,5.3v44.6C189.6,190.4,191.5,192.3,194.3,192.3z"/>
<path class="st1" d="M199.9,167c0,4.7-4.6,9-10.2,8.2v-16.4C195.2,158,199.9,162.3,199.9,167L199.9,167z"/>
<path class="st1" d="M18.1,94c-0.1,4.8,4.4,9.1,9.7,8.5V85.8C22.6,85.3,18.2,89.3,18.1,94L18.1,94z"/>
<path class="st2" d="M108.4,188.3v24.4H27.9v-24.4H108.4z"/>
<path class="st3" d="M39.9,1h137.9c6.6,0,12,5.4,12,12v210.8c0,6.6-5.4,12-12,12H39.9c-6.6,0-12-5.4-12-12V13
	C27.9,6.4,33.2,1,39.9,1z"/>
<line class="st3" x1="27.9" y1="40" x2="189.7" y2="40.7"/>
<line class="st3" x1="27.9" y1="188.3" x2="189.7" y2="189"/>
<line class="st3" x1="27.4" y1="140.4" x2="189.3" y2="141.1"/>
<line class="st3" x1="134.9" y1="39.5" x2="134.9" y2="140.9"/>
<line class="st3" x1="108.4" y1="188.3" x2="108.4" y2="235.8"/>
<line class="st3" x1="27.9" y1="90.2" x2="134.9" y2="90.2"/>
<path class="st4" d="M189.7,40.7c-53.9-0.2-107.9-0.5-161.9-0.7V11.7C27.9,5.8,32.5,1,38.2,1h141.1c5.7,0,10.4,4.8,10.4,10.7V40.7z"
	/>
<text transform="matrix(1 0 0 1 77.13 27.94)" class="st5 st6 st7">Type: </text>
<text transform="matrix(1 0 0 1 115.99 27.94)" class="st5 st6 st7 st8">S</text>
<text transform="matrix(1 0 0 1 125.73 27.94)" class="st5 st6 st7">our</text>
<text transform="matrix(1 0 0 1 128.93 226.76)" class="st9 st10 st11">0.0</text>
<text transform="matrix(1 0 0 1 159.31 224.34)" class="st9 st10 st12">%</text>
<line class="st13" x1="53.4" y1="116.8" x2="107.8" y2="116.8"/>
<circle class="st4" cx="82.5" cy="116.8" r="3.7"/>
<line class="st13" x1="52.2" y1="65.6" x2="106.7" y2="65.6"/>
<circle class="st4" cx="70.4" cy="65.6" r="3.7"/>
<text transform="matrix(1 0 0 1 33.44 67.63)" class="st9 st14 st15">Let</text>
<text transform="matrix(1 0 0 1 42.01 169.9)" class="st9 st10 st16">Aroma:</text>
<text transform="matrix(1 0 0 1 109.41 68.63)" class="st9 st14 st15">T</text>
<text transform="matrix(1 0 0 1 115.15 68.63)" class="st9 st14 st15">ung</text>
<text transform="matrix(1 0 0 1 32.73 119.8)" class="st9 st14 st15">Sød</text>
<text transform="matrix(1 0 0 1 111.48 119.8)" class="st9 st14 st15">Sur</text>
<path class="st17" d="M173.8,62.8c-9.2,0-18.3,0.1-27.5,0.1c0-0.2-0.6-5,2.4-7.2c0.5-0.4,1.6-1.2,2.9-1.2c1.4,0,2,0.9,2.7,0.6
	c1.1-0.5,0.3-2.8,1.5-4.3c1.8-2.2,7.2-2,8.8,0.3c0.8,1.2,0.2,2.6,1.2,3.2c0.9,0.5,1.5-0.3,3.4-0.2c0.7,0.1,2.4,0.3,3.6,1.7
	c0.9,1,1.1,2,1.2,2.9C174.3,60.5,174,61.9,173.8,62.8L173.8,62.8z"/>
<path class="st18" d="M173.6,90.2c-1.1,1.2-5.8,6.5-12.6,6.5c-6.4-0.1-10.7-4.8-12-6.1c-7.6-8.2-7.2-23.6-0.2-39.2
	c7.7-0.1,15.5-0.2,23.2-0.3C180,66.5,180.9,82,173.6,90.2L173.6,90.2z"/>
<path class="st19" d="M171.7,90.4c-1.1,1.2-4.4,4.9-9.7,5.2c-5.9,0.4-10.3-3.8-11.6-5.1c-9.6-9.4-4.5-26.9-4.2-27.9
	c9.2,0,18.4,0,27.5,0.1C174.1,63.6,180.5,80.7,171.7,90.4L171.7,90.4z"/>
<path class="st5" d="M150.9,54.3c-0.3,1.8-0.8,4.5-1.2,7.8c-1.2,9-1.8,13.4-1,17.3c0.6,2.7,2.3,8.4,9.4,14.1
	c-3.8-2.5-10.7-8.1-11.7-16.3c-0.5-4.4,0.6-9.1,2.1-15C149.4,58.9,150.3,56.2,150.9,54.3L150.9,54.3z"/>
<path class="st18" d="M146.2,121h30.2c-1.2-0.4-3-1.1-5-2.2c-2.7-1.4-4.1-2.1-5.2-3.3c-2.2-2.6-2.2-5.9-2.2-7.3
	c0-3.7,1.5-6.3,3.1-9.1c1.4-2.5,2.9-4.3,4-5.6c-1.2,1-4.4,3.4-9,3.8c-7.5,0.6-12.4-4.7-13.1-5.4c3.8,3.6,5.6,7.3,6.5,9.5
	c1.1,2.8,3.9,9.8,0.8,13.7c-1,1.2-2.6,2.1-5.9,3.9C148.7,120,147.2,120.6,146.2,121L146.2,121z"/>
<path class="st5" d="M156.7,98.3c0.3,1,0.6,2.5,1,4.3c1,5,1.5,7.5,0.8,9.7c-0.4,1.5-1.9,4.7-7.6,7.9c3-1.4,8.6-4.5,9.4-9.1
	c0.4-2.4-0.5-5.1-1.7-8.4C157.9,100.8,157.2,99.3,156.7,98.3L156.7,98.3z"/>
<path class="st20" d="M173.6,90.2c-1.1,1.2-5.8,6.5-12.6,6.5c-6.4-0.1-10.7-4.8-12-6.1c-7.6-8.2-7.2-23.6-0.2-39.2
	c7.7-0.1,15.5-0.2,23.2-0.3C180,66.5,180.9,82,173.6,90.2L173.6,90.2z"/>
<path class="st20" d="M146.2,121h30.2c-1.2-0.4-3-1.1-5-2.2c-2.7-1.4-4.1-2.1-5.2-3.3c-2.2-2.6-2.2-5.9-2.2-7.3
	c0-3.7,1.5-6.3,3.1-9.1c1.4-2.5,2.9-4.3,4-5.6c-1.2,1-4.4,3.4-9,3.8c-7.5,0.6-12.4-4.7-13.1-5.4c3.8,3.6,5.6,7.3,6.5,9.5
	c1.1,2.8,3.9,9.8,0.8,13.7c-1,1.2-2.6,2.1-5.9,3.9C148.7,120,147.2,120.6,146.2,121L146.2,121z"/>
<rect x="104.8" y="152.4" class="st21" width="74.3" height="32.3"/>
<text transform="matrix(1 0 0 1 104.828 158.1981)"><tspan x="0" y="0" class="st22 st23">Frugtagtig med </tspan><tspan x="0" y="9.6" class="st22 st23">tydelige noter af </tspan><tspan x="0" y="19.2" class="st22 st23">Riesling-druen</tspan></text>
<rect x="138.5" y="128" class="st21" width="48" height="10.3"/>
<text transform="matrix(1 0 0 1 138.4685 133.7142)" class="st22 st23">Gylden til rav</text>
<rect x="119.1" y="197" class="st21" width="63.6" height="13.7"/>
<text transform="matrix(1 0 0 1 119.1018 202.7669)" class="st22 st23">Alkohold procent</text>
<rect x="56.5" y="219.3" class="st21" width="30.1" height="12.2"/>
<text transform="matrix(1 0 0 1 56.5055 229.3747)" class="st22 st24">IBU</text>
<rect x="58.6" y="196.2" class="st21" width="30.1" height="12.2"/>
<text transform="matrix(1 0 0 1 58.6309 207.7498)" class="st22 st25">15</text>
</svg>
